<?xml version="1.0" encoding="utf-8"?>
<!-- Generator: Adobe Illustrator 23.0.4, SVG Export Plug-In . SVG Version: 6.00 Build 0)  -->
<svg version="1.1" id="Layer_1" xmlns="http://www.w3.org/2000/svg" xmlns:xlink="http://www.w3.org/1999/xlink" x="0px" y="0px"
	 viewBox="0 0 612 720" style="enable-background:new 0 0 612 720;" xml:space="preserve">
<style type="text/css">
	.st0{fill:#F74F40;}
	.st1{fill:#FFFFFF;}
</style>
<g>
	<path class="st0" d="M306,170.31c-104.76,0-189.69,84.93-189.69,189.69S201.24,549.69,306,549.69S495.69,464.76,495.69,360
		S410.76,170.31,306,170.31z M318,356c12-12,26-22,41-30C344,334,330,344,318,356z"/>
	<path class="st1" d="M379.38,386.71c-1.91-5.67-4.32-10.79-7.22-15.36c-1.22-1.92-2.57-3.78-4-5.59c0.04-0.01,0.07-0.01,0.11-0.02
		c-1.42-1.93-2.94-3.88-4.57-5.84c-8.55-10.26-17.81-17.98-26.4-23.77c-20.36-14.36-40.72-28.71-61.08-43.07
		c36.13-29.44,72.25-58.88,108.38-88.32c-4.47-3.01-10.3-6.38-17.47-9.3c-7.21-2.93-13.78-4.58-19.11-5.54
		c-26.05,22.08-45.32,37.79-58.43,48.3c-5.82,4.67-25.03,20.01-53.01,42.54c-1.18,0.95-2.36,1.9-3.54,2.85
		c-0.82,1.02-1.64,2.03-2.46,3.05c0.05,0.01,0.1,0.02,0.16,0.03c-3.19,3.56-4.69,8.54-3.6,13.57c0.61,2.82,1.97,5.27,3.81,7.24
		c-0.09,0.03-0.18,0.07-0.27,0.1l1.17,0.79c1.09,0.99,2.32,1.82,3.64,2.47l46.32,31.36c-0.09,0.03-0.17,0.06-0.26,0.09
		c2.76,1.96,5.54,3.96,8.33,6.01c4.34,3.18,7.46,5.54,8.45,6.29c5.7,4.3,10.32,7.48,14.32,10.2c1.48,0.96,3.03,2.03,4.61,3.24
		c2.16,1.65,4.06,3.3,5.73,4.87c5.51,5.83,9.65,10.4,14.09,17.88c2.8,4.71,5.78,9.34,7.4,16.29c1.36,5.8,2.04,13.76,2.04,23.87
		c0,6.79-0.12,12.52-0.37,17.21c-0.25,4.69-0.74,8.67-1.48,11.94c-0.74,3.27-1.76,6.17-3.05,8.7c-1.3,2.53-2.81,5.09-4.53,7.68
		c-2.84,3.95-7.1,7.25-12.77,9.9c-5.68,2.65-11.78,3.98-18.32,3.98c-6.54,0-12.65-1.32-18.32-3.98c-5.68-2.65-9.93-5.95-12.77-9.9
		c-1.73-2.59-3.24-5.15-4.53-7.68c-1.29-2.53-2.31-5.43-3.05-8.7c-0.74-3.27-1.23-7.25-1.48-11.94c-0.25-4.69-0.37-10.55-0.37-17.58
		c0-10.12,0.68-18.01,2.04-23.69c1.45-6.04,3.48-9.95,4.31-11.56c1.91-3.68,3.85-6.31,5.41-8.42c2.75-3.7,5.41-6.58,7.48-8.64
		c-10.53-7.4-21.05-14.8-31.58-22.21c-1.71,1.45-10.66,9.13-14.99,17.28c-1.66,3.12-4.24,9.29-5.7,13.56
		c-0.29,0.85-1.94,5.56-3.13,11.03c-2.1,9.6-2.51,19.17-2.51,32.64c0,10.36,0.37,19.28,1.11,26.74c0.74,7.47,2,14.04,3.79,19.71
		c1.79,5.68,3.95,10.64,6.48,14.9c2.53,4.26,5.71,8.42,9.53,12.49c2.47,3.09,5.52,6.08,9.16,8.98c3.64,2.9,7.87,5.49,12.68,7.77
		c4.81,2.28,10.21,4.16,16.19,5.64c5.98,1.48,12.74,2.22,20.26,2.22c7.52,0,14.28-0.74,20.26-2.22c5.98-1.48,11.38-3.36,16.19-5.64
		c4.81-2.28,8.97-4.87,12.49-7.77c3.52-2.9,6.63-5.89,9.34-8.98c3.82-4.07,7-8.23,9.53-12.49c2.53-4.26,4.69-9.22,6.48-14.9
		c1.79-5.67,3.05-12.24,3.79-19.71c0.74-7.46,1.11-16.38,1.11-26.74c0-9.13-0.49-17.3-1.48-24.52
		C382.74,398.83,381.29,392.38,379.38,386.71z"/>
</g>
</svg>
